<?xml version="1.0" encoding="UTF-8"?> <svg xmlns="http://www.w3.org/2000/svg" xmlns:v="https://vecta.io/nano" height="118" width="250" viewBox="0 0 425.2 200.69" overflow="visible"><path fill="#f20000" d="M390.93 0H34.27C15.38 0 0 15.36 0 34.25v132.2c0 18.88 15.38 34.25 34.27 34.25h356.66c18.89 0 34.26-15.36 34.26-34.25V34.25C425.2 15.36 409.83 0 390.93 0z"></path><path d="M38.14 109.39h-7.07v61.04h7.07c8.3 0 12.79-1.66 15.2-6.31 2.33-4.65 2.65-12.2 2.65-24.16s-.32-19.6-2.65-24.25c-2.4-4.66-6.9-6.32-15.2-6.32zm8.46 42.26c-.08 2.9-.41 5.07-.83 6.48-.91 2.98-2.66 3.32-5.73 3.32v-43.1c3.07 0 4.82.33 5.73 3.23.42 1.51.75 3.66.83 6.49.1 2.9.1 6.8.1 11.79l-.1 11.79zm93.31-68.34h-11.88V30.57h-8.97v61.05h20.85zm23.68 6.9a11.39 11.39 0 0 0 3.57-4.48c.92-1.92 1.41-4.16 1.5-6.66v-48.5h-8.98v48.5c0 .92-.08 1.67-.33 2.25-.33 1.24-1.08 2.24-2.66 2.24-.75 0-1.33-.25-1.74-.67-.83-.9-1.25-2.06-1.25-3.82v-48.5h-8.97v48.5c.08 2.5.58 4.74 1.49 6.66.75 1.65 1.83 3.23 3.49 4.48 1.67 1.33 3.99 2.08 6.98 2.08 2.99-.01 5.24-.75 6.9-2.08zm8.06 20.58c-1.66-1.24-3.9-2.07-6.89-2.07s-5.32.83-6.98 2.07c-1.66 1.25-2.74 2.91-3.49 4.57-.92 1.91-1.41 4.16-1.49 6.56v35.96c.08 2.5.58 4.74 1.49 6.65.75 1.66 1.83 3.23 3.49 4.48 1.66 1.33 3.99 2.07 6.98 2.07s5.23-.74 6.89-2.07c1.67-1.25 2.83-2.83 3.58-4.48.92-1.91 1.41-4.15 1.5-6.65v-35.96c-.08-2.41-.58-4.65-1.5-6.56-.75-1.66-1.91-3.32-3.58-4.57zm-3.89 47.09c0 .91-.09 1.67-.34 2.24-.33 1.25-1.08 2.25-2.66 2.25-.75 0-1.33-.25-1.74-.67-.84-.92-1.25-2.07-1.25-3.82v-35.96c0-.83.09-1.58.33-2.24.33-1.09 1.08-2.25 2.66-2.25.75 0 1.41.25 1.83.66.83 1 1.17 2.16 1.17 3.82v35.97zm29.34-70.26c1.91-2.82 2.57-6.64 2.57-10.71 0-3.32-1.09-6.47-2.66-9.54-1.58-3.08-3.67-6.23-5.74-9.3-1.74-2.58-3.49-4.99-4.81-7.32-1.33-2.32-2.25-4.48-2.25-6.55 0-3.57.75-5.98 3.07-6.06 1.42 0 2.33 1.16 2.91 2.82.58 1.74.67 3.98.67 5.98l8.81-.83c0-3.41-.5-7.47-2.25-10.8-1.74-3.25-4.9-5.49-10.31-5.4-4.23.09-7.14 1.99-9.05 4.65-1.91 2.74-2.66 6.32-2.66 9.64a16.37 16.37 0 0 0 .75 4.9c.91 3.24 2.41 6.39 4.4 9.46a260.83 260.83 0 0 0 5.65 8.39c.83 1.25 1.57 2.49 2.33 3.65 1.34 2.4 2.32 4.73 2.32 6.72 0 3.91-.99 6.73-3.66 6.73-1.91 0-2.9-1.33-3.48-3.32-.67-1.91-.76-4.48-.76-7.06l-8.81.83c0 4.56.42 8.97 2.25 12.3 1.83 3.32 5.07 5.48 10.8 5.48 4.92 0 7.99-1.83 9.91-4.66zM76.63 31.99c-1.66-1.24-3.9-2.07-6.89-2.07s-5.32.83-6.99 2.07c-1.66 1.25-2.74 2.91-3.48 4.57-.92 1.91-1.42 4.15-1.5 6.55v35.96c.08 2.5.59 4.74 1.5 6.66.75 1.65 1.82 3.23 3.48 4.48 1.67 1.33 4 2.08 6.99 2.08s5.23-.74 6.89-2.08c1.66-1.24 2.82-2.83 3.58-4.48.9-1.92 1.41-4.16 1.49-6.66v-8.38h-8.39v8.38c0 .92-.08 1.67-.33 2.25-.42 1.24-1.16 2.24-3.07 2.24-.75 0-1.33-.25-1.75-.67-.84-.9-1.33-2.06-1.41-3.82V43.11c.08-.83.16-1.57.41-2.23.41-1.09 1.16-2.24 2.74-2.24.91 0 1.66.24 2.07.66.92 1 1.34 2.16 1.34 3.81v8.4h8.39v-8.4c-.08-2.4-.59-4.64-1.49-6.55-.75-1.67-1.92-3.32-3.58-4.57zm-10.52 77.4h8.97v61.04h-8.97zm135.74 48.49c0 .91-.08 1.67-.33 2.24-.34 1.25-1.09 2.25-2.66 2.25-.75 0-1.33-.25-1.75-.67-.83-.92-1.25-2.07-1.25-3.82v-48.49h-8.97v48.49c.08 2.5.58 4.74 1.5 6.65.74 1.66 1.82 3.23 3.48 4.48 1.67 1.33 3.99 2.07 6.99 2.07 2.99 0 5.23-.74 6.88-2.07 1.67-1.25 2.83-2.83 3.58-4.48.91-1.91 1.41-4.15 1.49-6.65v-48.49h-8.97v48.49zM103.49 55.82h-6.98V30.57h-8.97v61.05h8.97V65.04h6.98v26.58h8.97V30.57h-8.97zm-5.79 61.12c1.41 0 2.33 1.16 2.91 2.83.59 1.73.67 3.98.67 5.97l8.8-.83c0-3.41-.5-7.48-2.24-10.8-1.74-3.24-4.9-5.48-10.3-5.39-4.23.08-7.15 1.99-9.06 4.64-1.91 2.74-2.66 6.32-2.66 9.64 0 1.66.25 3.31.75 4.89.92 3.24 2.41 6.4 4.4 9.47s3.91 5.9 5.65 8.39c.83 1.24 1.58 2.49 2.33 3.65 1.34 2.41 2.33 4.74 2.33 6.72 0 3.91-.99 6.74-3.65 6.74-1.91 0-2.91-1.34-3.49-3.32-.66-1.92-.75-4.49-.75-7.07l-8.81.83c0 4.57.42 8.98 2.25 12.3 1.82 3.32 5.06 5.47 10.8 5.47 4.9 0 7.98-1.83 9.89-4.65s2.57-6.63 2.57-10.71c0-3.32-1.08-6.47-2.66-9.54-1.58-3.08-3.65-6.24-5.73-9.31-1.75-2.58-3.49-4.99-4.82-7.31-1.32-2.32-2.25-4.48-2.25-6.55-.01-3.57.75-5.98 3.07-6.06zm40.49-6.15c-1.66-1.24-3.91-2.07-6.9-2.07s-5.32.83-6.98 2.07c-1.66 1.25-2.74 2.91-3.49 4.57-.92 1.91-1.41 4.16-1.49 6.56v35.96c.08 2.5.58 4.74 1.49 6.65.74 1.66 1.83 3.23 3.49 4.48 1.66 1.33 3.99 2.07 6.98 2.07s5.24-.74 6.9-2.07a11.37 11.37 0 0 0 3.57-4.48c.92-1.91 1.4-4.15 1.49-6.65v-8.38h-8.39v8.38c0 .91-.09 1.67-.33 2.24-.42 1.25-1.17 2.25-3.08 2.25-.75 0-1.33-.25-1.74-.67-.84-.92-1.33-2.07-1.42-3.82v-35.96c.09-.83.17-1.58.42-2.24.42-1.09 1.16-2.25 2.74-2.25.92 0 1.67.25 2.08.66.91 1 1.33 2.16 1.33 3.82v8.39h8.39v-8.39c-.09-2.41-.58-4.65-1.49-6.56-.74-1.65-1.9-3.31-3.57-4.56zm207.16-57.87h-.2-.19c-3.83-.12-10.73 1.22-12.01 12.04-.55 4.64.23 8.83 1.13 11.85 6.39-.75 13.98-1.03 22.22-.22.87-2.99 1.6-7.1 1.07-11.63-1.29-10.82-8.13-12.16-12.02-12.04zm46.69-24.34h-92.33c-3.33 0-6.04 2.35-6.04 5.24V140.8c0 2.87 2.21 6.59 4.9 8.28l35.29 21.97c11.03 5.77 12.01 6.48 24.01 0l35.3-21.97c2.7-1.68 4.91-5.4 4.91-8.28V33.82c0-2.89-2.72-5.24-6.04-5.24zM377.3 133.91s-38.05 7.33-62.86-1.25V81.13s3.59-1.33 9.55-2.63c-1.05-3.95-1.81-9.06-1.14-14.73 1.88-15.92 12.66-21.32 22.29-21 9.68-.26 20.41 5.08 22.29 21 .65 5.5-.04 10.48-1.04 14.38 3.58.75 7.22 1.7 10.91 2.98v52.78zM49.94 87.62c1.92-2.82 2.58-6.64 2.58-10.71 0-3.32-1.09-6.47-2.66-9.54-1.58-3.08-3.66-6.23-5.73-9.3-1.74-2.58-3.49-4.99-4.82-7.32-1.33-2.32-2.25-4.48-2.25-6.55 0-3.57.75-5.98 3.07-6.06 1.42 0 2.32 1.16 2.9 2.82.59 1.74.67 3.98.67 5.98l8.81-.83c0-3.41-.5-7.47-2.25-10.8-1.74-3.25-4.9-5.49-10.3-5.4-4.24.09-7.15 1.99-9.05 4.65-1.91 2.74-2.66 6.32-2.66 9.64a16.37 16.37 0 0 0 .75 4.9c.91 3.24 2.41 6.39 4.4 9.46a260.1 260.1 0 0 0 5.66 8.39l2.32 3.65c1.32 2.4 2.32 4.73 2.32 6.72 0 3.91-1 6.73-3.66 6.73-1.91 0-2.91-1.33-3.49-3.32-.66-1.91-.75-4.48-.75-7.06l-8.81.83c0 4.56.42 8.97 2.24 12.3 1.84 3.32 5.08 5.48 10.81 5.48 4.92 0 7.99-1.83 9.9-4.66zM390.93 4.13H34.27c-16.62 0-30.14 13.51-30.14 30.11v132.2c0 16.6 13.52 30.11 30.14 30.11h356.66c16.62 0 30.13-13.51 30.13-30.11V34.25c.01-16.6-13.51-30.12-30.13-30.12zm25.83 162.32c0 14.23-11.59 25.81-25.83 25.81H34.27c-14.24 0-25.82-11.58-25.82-25.81V34.25c0-14.22 11.59-25.81 25.82-25.81h112.7v16.74h7.73V8.44h3.99v16.74h7.72V8.44h224.52c14.24 0 25.83 11.58 25.83 25.81v132.2zm-64.32-65.57c0-3.62-2.95-6.56-6.57-6.56-3.63 0-6.57 2.94-6.57 6.56 0 2.4 1.29 4.47 3.21 5.62-.8 3.04-1.57 6.35-1.57 7.83 0 3.89 2.21 4.05 4.93 4.05 2.71 0 4.94-.16 4.94-4.05 0-1.48-.78-4.79-1.58-7.83a6.52 6.52 0 0 0 3.21-5.62zm-113.17 43.13h-.49l-.75-2.82-8.73-31.8h-7.97v61.03h8.22v-34.63h.5l.75 2.83 8.72 31.8h7.98v-61.03h-8.23zm31.14-113.44h-8.96v61.04h20.85v-8.3h-11.89zm-43.16 57.05c1.9-2.82 2.58-6.64 2.58-10.71 0-3.32-1.08-6.47-2.66-9.54-1.57-3.08-3.65-6.23-5.73-9.3-1.74-2.58-3.49-4.99-4.82-7.32-1.33-2.32-2.25-4.48-2.25-6.55 0-3.57.76-5.98 3.08-6.06 1.41 0 2.32 1.16 2.9 2.82.58 1.74.67 3.98.67 5.98l8.81-.83c0-3.41-.51-7.47-2.25-10.8-1.74-3.25-4.9-5.49-10.3-5.4-4.25.09-7.15 1.99-9.06 4.65-1.91 2.74-2.66 6.32-2.66 9.64a16.37 16.37 0 0 0 .75 4.9c.92 3.24 2.41 6.39 4.4 9.46a298.79 298.79 0 0 0 5.65 8.39c.83 1.25 1.58 2.49 2.33 3.65 1.33 2.4 2.33 4.73 2.33 6.72 0 3.91-.99 6.73-3.66 6.73-1.91 0-2.91-1.33-3.49-3.32-.66-1.91-.75-4.48-.75-7.06l-8.8.83c0 4.56.41 8.97 2.24 12.3 1.83 3.32 5.07 5.48 10.8 5.48 4.9 0 7.98-1.83 9.89-4.66zm8.13 4h20.51v-9.23h-11.55V65.62h8.32v-9.8h-8.32V39.79h11.55v-9.22h-20.51zm21 26.98h8.47v51.82h8.97V118.6h8.48v-9.21h-25.92z" fill="#fff"></path></svg> 