<?xml version="1.0" encoding="utf-8"?>
<!-- Generator: Adobe Illustrator 27.1.1, SVG Export Plug-In . SVG Version: 6.00 Build 0)  -->
<svg version="1.1" id="Слой_1" xmlns="http://www.w3.org/2000/svg" xmlns:xlink="http://www.w3.org/1999/xlink" x="0px" y="0px"
	 viewBox="0 0 370 120" style="enable-background:new 0 0 370 120;" xml:space="preserve">
<style type="text/css">
	.st0{fill:#FFFFFF;}
</style>
<g>
	<path class="st0" d="M84.1,0.2H2.5c-1.2,0-2.2,1-2.2,2.2v51.3c0,1.2,1,2.2,2.2,2.2h81.7c1.2,0,2.2-1,2.2-2.2V2.4
		C86.3,1.2,85.3,0.2,84.1,0.2z M6.9,17.1h9.2c1.3,0.1,2.2,0.5,2.6,1.8l2.1,9.6c-2-5.1-6.7-9.2-13.9-11C6.9,17.5,6.9,17.1,6.9,17.1z
		 M18,39l-5.3-18.2c3.8,2.5,7.1,6.3,8.2,9l0.6,2.2l5.8-14.8h6.3L24.3,39C24.3,39,18,39,18,39z M38.3,39h-5.9L36,17.2h5.9L38.3,39z
		 M48.5,39.3c-2.6,0-5.2-0.6-6.6-1.2l0.8-4.9l0.8,0.3c1.9,0.8,3.2,1.1,5.6,1.1c1.7,0,3.5-0.6,3.5-2.2c0-1-0.8-1.6-3.1-2.7
		c-2.2-1-5.3-2.8-5.2-5.9c0-4.2,4.1-7.2,10-7.2c2.3,0,4.1,0.5,5.3,0.9l-0.8,4.7l-0.6-0.2c-1.1-0.5-2.5-0.9-4.5-0.8
		c-2.3,0-3.4,1-3.4,1.8c0,1,1.3,1.7,3.3,2.7c3.4,1.5,5,3.4,4.9,5.9C58.8,36.5,54.8,39.3,48.5,39.3z M74.3,39c0,0-0.6-2.5-0.7-3.3H66
		c-0.2,0.6-1.3,3.3-1.3,3.3h-6.2l8.8-19.9c0.6-1.4,1.7-1.8,3.1-1.8h4.5L79.7,39H74.3z"/>
	<path class="st0" d="M70.8,23.1c-0.3,0.8-0.8,2.2-0.8,2.1c0,0-1.9,4.9-2.4,6.1h4.9c-0.2-1.1-1.4-6.3-1.4-6.3S70.8,23.1,70.8,23.1z
		 M119.4,27.4c0,0.4-0.1,0.6-0.1,0.6s-0.7-0.1-1-0.1c-2.1,0-4.1,0.9-4.1,3.5c0,2.1,1.4,2.6,2.2,2.6c1.7,0,2.4-1.1,2.4-1.1v1h2.1
		l1-6.5c0-2.8-2.4-2.9-3.3-2.9c-1.6,0-2.9,0.6-2.9,0.6l-0.3,2c0,0,1-0.4,2.6-0.4C118.7,26.6,119.4,26.6,119.4,27.4L119.4,27.4z
		 M117.3,31.9c-0.7,0-1-0.6-1-0.9c0-0.6,0.3-1.4,2.1-1.4c0.4,0,0.5,0.1,0.5,0.1C119,30.1,118.7,31.9,117.3,31.9L117.3,31.9z
		 M125.1,31c0,0.7-0.8,0.8-1.4,0.8c-1.1,0-2.1-0.4-2.1-0.4l-0.3,2.1c0.1,0,0.6,0.3,2.6,0.3c0.6,0,3.6,0.2,3.6-3
		c0-2.9-2.8-2.3-2.8-3.5c0-0.6,0.5-0.8,1.3-0.8c0.3,0,1.6,0.1,1.6,0.1l0.3-2.1c0,0-0.8-0.2-2.2-0.2c-1.8,0-3.5,0.7-3.5,3.1
		C122.2,30.2,125.1,29.9,125.1,31L125.1,31z M129.7,33.9c0.9,0,1.5-0.2,1.8-0.3l0.3-2c-0.2,0-0.4,0.1-0.6,0.1
		c-0.8,0-0.9-0.4-0.9-0.8l0.6-4.1h1.3l0.3-2.2h-1.2l0.2-1.4h-2.4c-0.1,0.1-1.4,7.7-1.4,8.7C127.7,33.3,128.5,33.9,129.7,33.9
		L129.7,33.9z M140.7,14h-4.2c-0.6,0.8-1.1,1.6-1.6,2.4h7.5C141.9,15.6,141.4,14.8,140.7,14L140.7,14z M173.4,40.4
		C173.4,40.4,173.3,40.4,173.4,40.4C173.4,40.4,173.5,40.4,173.4,40.4c0.1-0.2,0.2-0.2,0.2-0.2v-0.1l-0.1-0.1h-0.6v0.8h0.2v-0.3h0.2
		l0.2,0.2l0.1,0.2h0.2l-0.1-0.2C173.5,40.5,173.4,40.5,173.4,40.4z M173.2,40.4h-0.2v-0.2h0.4v0.2C173.3,40.4,173.3,40.4,173.2,40.4
		z M143.8,18.7h-10c-0.6,1.2-1,2.2-1.2,2.4h12.2L143.8,18.7z M112,25.3l-1.4,8.4h2.4l1.8-11.2h-3.7l-2.3,6.9l-0.2-6.9h-3.4
		l-1.9,11.2h2.3l1.4-8.4l0.2,8.4h1.7L112,25.3z M154.5,33.9c1.7,0,2.4-1.1,2.4-1.1l-0.1,0.9h2.1l1-6.5c0-2.8-2.4-2.9-3.2-2.9
		c-1.6,0-2.9,0.6-2.9,0.6l-0.3,2c0,0,1-0.4,2.6-0.4c0.9,0,1.5,0.1,1.5,0.8c0,0.4-0.1,0.6-0.1,0.6s-0.7-0.1-1-0.1
		c-2.1,0-4.1,0.9-4.1,3.5C152.2,33.4,153.6,33.9,154.5,33.9L154.5,33.9z M156.6,29.6c0.4,0,0.5,0.1,0.5,0.1c0.1,0.4-0.2,2.2-1.7,2.2
		c-0.7,0-1-0.6-1-0.9C154.5,30.4,154.8,29.6,156.6,29.6z M172.6,32.5c-0.1,0.1-0.2,0.2-0.2,0.2c-0.1,0.1-0.1,0.2-0.1,0.3
		c0,0.1,0,0.2,0.1,0.3c0.1,0.1,0.2,0.2,0.2,0.2c0.1,0.1,0.2,0.1,0.3,0.1c0.2,0,0.2,0,0.3-0.1c0.1-0.1,0.2-0.2,0.2-0.2
		c0.1-0.1,0.1-0.2,0.1-0.3c0-0.2,0-0.2-0.1-0.3c-0.1-0.1-0.2-0.2-0.2-0.2c-0.1-0.1-0.2-0.1-0.3-0.1
		C172.8,32.3,172.7,32.4,172.6,32.5z M173.2,32.5l0.2,0.2c0.1,0.1,0.1,0.2,0.1,0.3c0,0.2,0,0.2-0.1,0.3l-0.2,0.2
		c-0.1,0.1-0.2,0.1-0.3,0.1c-0.1,0-0.2,0-0.3-0.1l-0.2-0.2c-0.1-0.1-0.1-0.2-0.1-0.3c0-0.2,0-0.2,0.1-0.3l0.2-0.2
		c0.1-0.1,0.2-0.1,0.3-0.1C173.1,32.5,173.2,32.5,173.2,32.5z"/>
	<path class="st0" d="M172.6,33.4h0.2v-0.3h0.2l0.2,0.2l0.1,0.2h0.2l-0.1-0.2c-0.1-0.1-0.1-0.2-0.1-0.2h-0.1c0.1,0,0.1,0,0.2-0.1
		c0,0,0.1-0.1,0.1-0.2v-0.1l-0.1-0.1h-0.4v0.7H172.6z M172.8,32.8h0.3l0.1,0.1V33h-0.3L172.8,32.8L172.8,32.8z M161.7,33.7
		c0.7-3.9,0.8-7.1,2.5-6.5c0.3-1.5,0.6-2.1,0.9-2.7h-0.5c-1,0-1.8,1.4-1.8,1.4l0.2-1.4h-2.2l-1.4,9.1H161.7z M166.9,33.9
		c1.4,0,2.2-1,2.2-1l-0.1,0.8h2.3l1.8-11.2h-2.4l-0.5,3.1c0,0-0.9-1.2-2.2-1.2c-2.2,0-4,2.6-4,5.6C163.9,32,164.9,33.9,166.9,33.9
		L166.9,33.9z M168.3,26.7c0.9,0,1.3,0.6,1.3,1.9c0,1.3-0.6,2.9-1.9,2.9c-0.9,0-1.3-0.7-1.3-1.8C166.4,27.9,167.3,26.7,168.3,26.7z"
		/>
	<path class="st0" d="M97.8,56h81.7c1.2,0,2.2-1,2.2-2.2V2.4c0-1.2-1-2.2-2.2-2.2H97.8c-1.2,0-2.2,1-2.2,2.2v51.3
		C95.5,55,96.5,56,97.8,56z M173.9,40.8c-0.1,0.1-0.2,0.2-0.2,0.2c-0.1,0.1-0.2,0.1-0.3,0.1c-0.2,0-0.2,0-0.3-0.1
		c-0.1-0.1-0.2-0.2-0.2-0.2c-0.1-0.1-0.1-0.2-0.1-0.3c0-0.1,0-0.2,0.1-0.3c0.1-0.1,0.2-0.2,0.2-0.2c0.1-0.1,0.2-0.1,0.3-0.1
		c0.2,0,0.2,0,0.3,0.1c0.1,0.1,0.2,0.2,0.2,0.2c0.1,0.1,0.1,0.2,0.1,0.3C174,40.5,174,40.6,173.9,40.8z M123.6,6h0.2
		c5.7,0,10.9,2.2,14.8,5.7c3.9-3.6,9.1-5.7,14.8-5.7c12.2,0,22.1,9.9,22.1,22.1s-9.9,22.1-22.1,22.1c-5.7,0-10.9-2.2-14.8-5.7
		c-3.9,3.6-9.1,5.7-14.8,5.7c-12.2,0-22.1-9.9-22.1-22.1C101.7,16,111.5,6.1,123.6,6z"/>
	<path class="st0" d="M138.6,44.5C138.6,44.5,138.6,44.4,138.6,44.5C138.6,44.4,138.6,44.4,138.6,44.5c0.9-0.8,1.6-1.6,2.3-2.4h-4.6
		C137,42.9,137.7,43.8,138.6,44.5z M138.7,33.5l0.4-2.2c0,0-1.3,0.6-2.5,0.6c-2.6,0-2.1-1.9-2.1-1.9h4.8c0,0,0.3-1.5,0.3-2.2
		c0-1.5-0.8-3.4-3.3-3.4c-2.4,0-4.1,2.6-4.1,5.4c0,3.3,2.2,4.1,4.1,4.1C137.9,33.9,138.7,33.5,138.7,33.5z M136.3,26.5
		c1.4,0,1.1,1.5,1.1,1.6h-2.6C134.8,27.9,135,26.5,136.3,26.5L136.3,26.5z M149.1,33.9c0.8,0,2.1-0.3,2.1-0.3l0.4-2.6
		c0,0-1.1,0.6-1.9,0.6c-1.7,0-2.3-1.3-2.3-2.6c0-2.8,1.4-4.3,3-4.3c1.2,0,2.2,0.6,2.2,0.6l0.4-2.5c0,0-1.4-0.6-2.6-0.6
		c-2.7,0-5.3,2.4-5.3,6.8C144.9,32,146.3,33.9,149.1,33.9L149.1,33.9z M134.7,39.8h7.8c0.5-0.8,0.9-1.5,1.3-2.4h-10.4
		C133.7,38.3,134.2,39,134.7,39.8z M143,25.9l0.2-1.4h-2.2l-1.5,9.2h2.4c0.7-3.9,0.8-7.1,2.5-6.5c0.3-1.5,0.6-2.1,0.9-2.7h-0.5
		C143.8,24.5,143,25.9,143,25.9L143,25.9z M191.8,56h81.7c1.2,0,2.2-1,2.2-2.2V2.4c0-1.2-1-2.2-2.2-2.2h-81.7c-1.2,0-2.2,1-2.2,2.2
		v51.3C189.6,55,190.5,56,191.8,56z M267.4,29.7c0.7,0,1.4,0.6,1.4,1.4v1.8c0,0.5-0.2,0.9-0.6,1.1c0.6,0.7,1,1.5,1,2.7
		c0,2.5-1.7,3.9-4.4,3.9h-3.8c-0.6,0-1-0.3-1.3-0.8c-0.7,0.6-1.8,0.8-2.9,0.8h-3.8c-0.2,0-0.4-0.1-0.6-0.2c-0.2,0.1-0.4,0.2-0.6,0.2
		h-6.5c-0.2,0-0.4-0.1-0.6-0.2c-0.2,0.1-0.4,0.2-0.6,0.2h-2c-0.7,0-1.4-0.6-1.4-1.4v-1.6h-1.1v1.7c0,0.7-0.6,1.4-1.4,1.4h-2
		c-0.7,0-1.4-0.6-1.4-1.4v-2.1c-0.7,0.4-1.7,0.7-2.9,0.7h-1.1v1.4c0,0.7-0.6,1.4-1.4,1.4h-3.8c-0.4,0-0.7-0.2-1-0.5l-1.4-1.6
		l-1.5,1.6c-0.2,0.2-0.6,0.4-1,0.4h-7.7c-0.7,0-1.4-0.6-1.4-1.4V31c0-0.7,0.6-1.4,1.4-1.4h7.9c0.4,0,0.7,0.2,1,0.5l1.4,1.6l1.5-1.6
		c0.2-0.2,0.6-0.4,1-0.4h6.2c1.4,0,2.3,0.3,3,0.7c0.2-0.5,0.6-0.7,1.2-0.7h4.5c1,0,2.1,0,3,0.6l0.2,0.2c0.2-0.4,0.6-0.7,1.2-0.7h6.5
		c0.5,0,1,0.3,1.2,0.7c0.6-0.4,1.5-0.7,2.6-0.7h3.9c0.6,0,1,0.4,1.3,0.9c0.6-0.6,1.6-0.9,2.8-0.9h3.9L267.4,29.7z M196.2,24.7
		l3.5-8.2c0.2-0.5,0.7-0.8,1.3-0.8h2.9c0.6,0,1,0.3,1.3,0.8l0.7,1.7V17c0-0.7,0.6-1.4,1.4-1.4h3.2c0.6,0,1,0.3,1.2,0.8l1.3,2.8
		l1.2-2.7c0.2-0.5,0.7-0.8,1.3-0.8h3.3c0.2,0,0.5,0.1,0.7,0.2c0.2-0.2,0.5-0.2,0.7-0.2h6.5c0.2,0,0.5,0.1,0.6,0.2
		c0.2-0.2,0.4-0.2,0.7-0.2h4.5c1.2,0,2.2,0.1,3,0.6c0.1,0.1,0.2,0.2,0.2,0.2c0.2-0.5,0.6-0.8,1.2-0.8h2c0.6,0,1.2,0.5,1.3,1.1
		c0.9-0.8,2.1-1.1,3.7-1.1h1.9c0.3,0,0.6,0.1,0.8,0.2c0.2-0.2,0.5-0.2,0.8-0.2h2.9c0.6,0,1,0.3,1.3,0.8l0.7,1.7V17
		c0-0.7,0.6-1.4,1.4-1.4h2.9c0.5,0,0.9,0.2,1.1,0.6l1,1.5V17c0-0.7,0.6-1.4,1.4-1.4h2c0.7,0,1.4,0.6,1.4,1.4v8.2
		c0,0.7-0.6,1.4-1.4,1.4h-2.8c-0.5,0-0.9-0.2-1.2-0.6l-1.2-2v1.3c0,0.7-0.6,1.4-1.4,1.4h-4c-0.6,0-1-0.3-1.3-0.8l-0.4-1h-2.2l-0.4,1
		c-0.2,0.5-0.7,0.9-1.3,0.9h-2.3c-0.9,0-2.4-0.2-3.5-1.1c-0.2,0.6-0.6,1.1-1.3,1.1h-2c-0.2,0-0.4-0.1-0.6-0.2
		c-0.2,0.1-0.4,0.2-0.6,0.2h-2c-0.7,0-1.4-0.6-1.4-1.4v-1.6H231v1.6c0,0.7-0.6,1.4-1.4,1.4h-1.8c-0.2,0-0.5-0.1-0.7-0.2
		c-0.2,0.2-0.4,0.2-0.6,0.2H220c-0.2,0-0.5-0.1-0.7-0.2c-0.2,0.2-0.5,0.2-0.7,0.2h-2c-0.7,0-1.4-0.6-1.4-1.4l-0.2,0.6
		c-0.2,0.5-0.7,0.8-1.2,0.8H212c-0.6,0-1-0.3-1.2-0.8l-0.2-0.6c0,0.7-0.6,1.4-1.4,1.4h-4c-0.6,0-1-0.3-1.3-0.8l-0.4-1h-2.2l-0.4,1
		c-0.2,0.5-0.7,0.8-1.3,0.8h-2.2c-0.5,0-0.9-0.2-1.1-0.6C196.1,25.5,196,25.1,196.2,24.7z"/>
	<path class="st0" d="M229.8,22.2h2.1c0.7,0,1.1,0.1,1.4,0.3c0.3,0.4,0.3,1.1,0.3,1.6v1h2v-1.6c0-0.7-0.1-1.1-0.3-1.5
		c-0.2-0.2-0.6-0.6-1-0.7c0.5-0.2,1.4-0.9,1.4-2.2c0-0.9-0.4-1.4-1-1.8c-0.6-0.4-1.4-0.4-2.4-0.4h-4.5v8.2h2L229.8,22.2L229.8,22.2z
		 M229.8,18.7h2.4c0.3,0,0.7,0,1,0.2c0.2,0.1,0.4,0.4,0.4,0.7c0,0.3-0.2,0.6-0.4,0.8c-0.2,0.2-0.6,0.2-1,0.2h-2.4
		C229.8,20.5,229.8,18.7,229.8,18.7z M236.9,17h2v8.2h-2V17z M243.7,25.1h2.3l0.7-1.8h4.1l0.8,1.8h4V19l3.7,6.1h2.8V17h-2v5.7
		l-3.5-5.7h-2.9v7.7l-3.3-7.7h-2.9l-2.8,6.5h-0.9c-0.5,0-1-0.1-1.4-0.4c-0.4-0.4-0.6-1-0.6-1.9s0.2-1.5,0.6-1.8
		c0.4-0.4,0.8-0.5,1.5-0.5h1.8V17h-1.8c-1.4,0-2.3,0.3-2.9,1c-0.9,0.9-1,2-1,3.2c0,1.5,0.4,2.4,1,3.1S242.7,25.1,243.7,25.1z
		 M248.8,18.4l1.4,3.3h-2.7L248.8,18.4L248.8,18.4z"/>
	<path class="st0" d="M243.1,21.1c0,0.6,0.1,0.8,0.2,1h0.4l0.9-2h-0.7c-0.5,0-0.5,0.1-0.6,0.1C243.3,20.2,243.1,20.5,243.1,21.1z
		 M245.2,39.2h6.5v-1.7l-4.6-0.1v-1.6h4.5v-1.7h-4.5v-1.5h4.6V31h-6.5V39.2z M232.1,31h-6.2l-2.5,2.7L221,31h-7.9v8.2h7.7l2.5-2.7
		l2.4,2.7h3.8v-2.7h2.5c1.7,0,3.4-0.5,3.4-2.7C235.3,31.5,233.6,31,232.1,31z M219.8,37.6H215V36h4.3v-1.7H215v-1.5h4.9l2.2,2.4
		L219.8,37.6L219.8,37.6z M227.5,38.5l-3-3.3l3-3.2C227.5,32,227.5,38.5,227.5,38.5z M232,34.9h-2.5v-2.1h2.6c0.7,0,1.2,0.3,1.2,1
		C233.3,34.5,232.8,34.9,232,34.9L232,34.9z M243.1,31.4c-0.6-0.3-1.4-0.4-2.4-0.4h-4.5v8.2h2v-2.9h2.1c0.7,0,1.1,0.1,1.4,0.4
		c0.4,0.4,0.3,1.1,0.3,1.6v1h2v-1.6c0-0.7-0.1-1.1-0.3-1.5c-0.2-0.2-0.6-0.6-1-0.7c0.5-0.2,1.4-0.9,1.4-2.2
		C244.1,32.3,243.8,31.8,243.1,31.4L243.1,31.4z M241.5,34.4c-0.2,0.2-0.6,0.2-1,0.2h-2.4v-1.8h2.4c0.3,0,0.7,0,1,0.2
		c0.2,0.2,0.4,0.4,0.4,0.7C241.9,34,241.8,34.3,241.5,34.4z M256.9,34.2h-1c-0.3,0-0.6,0-0.8-0.1c-0.2-0.1-0.4-0.3-0.4-0.6
		c0-0.2,0.1-0.5,0.3-0.6c0.2-0.2,0.4-0.2,0.8-0.2h3.6V31h-3.9c-2.1,0-2.8,1.3-2.8,2.5c0,2.6,2.3,2.5,4.1,2.6c0.3,0,0.6,0.1,0.7,0.2
		c0.2,0.1,0.2,0.3,0.2,0.6c0,0.2-0.1,0.4-0.2,0.6c-0.2,0.2-0.4,0.2-0.8,0.2h-3.8v1.8h3.8c2,0,3.1-0.8,3.1-2.6c0-0.9-0.2-1.4-0.6-1.8
		C258.8,34.5,258,34.3,256.9,34.2z M200.3,23.3h4.1l0.7,1.8h4v-6.4l2.9,6.4h1.8l2.9-6.4v6.4h2V17h-3.3l-2.3,5.6l-2.6-5.6h-3.2v7.7
		l-3.3-7.7h-2.9l-3.5,8.2h2.2L200.3,23.3L200.3,23.3z M202.3,18.4l1.4,3.3h-2.6L202.3,18.4z M226.6,23.5h-4.6v-1.7h4.5v-1.7h-4.5
		v-1.4h4.6V17H220v8.1h6.5V23.5z M264.8,36.1c0.3,0,0.6,0.1,0.7,0.2c0.2,0.1,0.2,0.3,0.2,0.6c0,0.2-0.1,0.4-0.2,0.6
		c-0.2,0.2-0.4,0.2-0.8,0.2h-3.8v1.8h3.8c2,0,3.1-0.8,3.1-2.6c0-0.9-0.2-1.4-0.6-1.8c-0.5-0.5-1.2-0.6-2.2-0.6h-1
		c-0.3,0-0.6,0-0.8-0.1c-0.2-0.1-0.4-0.3-0.4-0.6c0-0.2,0.1-0.5,0.3-0.6c0.2-0.2,0.4-0.2,0.8-0.2h3.6v-1.8h-3.9
		c-2.1,0-2.8,1.3-2.8,2.5C260.7,36.1,263,36,264.8,36.1z M331.8,18.7h-10c-0.6,1.2-1,2.2-1.2,2.4h12.2
		C332.5,20.3,332.2,19.5,331.8,18.7L331.8,18.7z M313.8,26.8c0.6-0.2,1.4-0.2,2.2-0.2c1.2,0,1.7,0.2,1.7,0.8c0,0.2,0,0.2-0.1,0.6
		c-0.4-0.1-0.8-0.1-1-0.1c-2.9,0-4.6,1.2-4.6,3.3c0,1.4,1,2.4,2.4,2.4c1.2,0,2.1-0.3,2.7-1l-0.1,0.9h2.2v-0.6l0.1-0.5l0.1-0.6
		l0.6-3.1c0.2-1,0.2-1.3,0.2-1.8c0-1.7-1.2-2.6-3.4-2.6c-1,0-1.8,0.2-3.1,0.5l-0.3,1.9l0.2-0.1L313.8,26.8L313.8,26.8z M315.3,31.7
		c-0.6,0-1-0.3-1-0.9c0-0.9,0.7-1.4,2.2-1.4h0.6C317.2,30.8,316.4,31.7,315.3,31.7z M303.1,25.3l0.5,8.1h2.4l3.6-8.2l-1.6,8.2h2.6
		l2.1-10.7h-4.2l-2.9,6.6l-0.2-6.6h-4.1l-2.1,10.7h2.4L303.1,25.3z M355.7,32.8L355.7,32.8l0.2,0.2h0.2l-0.1-0.2
		c0.1,0,0.1-0.1,0.1-0.2s0-0.1-0.1-0.2h-0.4V33h0.2V32.8L355.7,32.8z M355.7,32.5h0.2v0.2h-0.2V32.5z M361.6,40.2
		c0-0.1,0-0.1-0.1-0.2h-0.4v0.6h0.2v-0.2h0.1l0.1,0.2h0.2l-0.1-0.2C361.6,40.4,361.6,40.3,361.6,40.2L361.6,40.2z M361.4,40.3
		C361.4,40.3,361.3,40.3,361.4,40.3h-0.2v-0.2h0.2C361.5,40.2,361.5,40.2,361.4,40.3C361.5,40.3,361.5,40.3,361.4,40.3z"/>
	<path class="st0" d="M285.8,56h81.7c1.2,0,2.2-1,2.2-2.2V2.4c0-1.2-1-2.2-2.2-2.2h-81.7c-1.2,0-2.2,1-2.2,2.2v51.3
		C283.6,55,284.6,56,285.8,56z M362,40.8c-0.1,0.1-0.2,0.2-0.2,0.2c-0.1,0.1-0.2,0.1-0.3,0.1c-0.2,0-0.2,0-0.3-0.1
		c-0.1-0.1-0.2-0.2-0.2-0.2c-0.1-0.1-0.1-0.2-0.1-0.3c0-0.1,0-0.2,0.1-0.3c0.1-0.1,0.2-0.2,0.2-0.2c0.1-0.1,0.2-0.1,0.3-0.1
		c0.2,0,0.2,0,0.3,0.1c0.1,0.1,0.2,0.2,0.2,0.2c0.1,0.1,0.1,0.2,0.1,0.3C362,40.5,362,40.6,362,40.8z M311.7,6h0.2
		c5.7,0,10.9,2.2,14.8,5.7c3.9-3.6,9.1-5.7,14.8-5.7c12.2,0,22.1,9.9,22.1,22.1s-9.9,22.1-22.1,22.1c-5.7,0-10.9-2.2-14.8-5.7
		c-3.9,3.6-9.1,5.7-14.8,5.7c-12.2,0-22.1-9.9-22.1-22.1C289.8,16,299.6,6.1,311.7,6z"/>
	<path class="st0" d="M328.9,14h-4.2c-0.6,0.8-1.1,1.6-1.6,2.4h7.5C330.1,15.6,329.4,14.8,328.9,14z M329.4,27.4
		c0,1.1,0.6,1.8,2,2.4c1,0.4,1.2,0.6,1.2,1c0,0.6-0.5,0.8-1.5,0.8c-0.8,0-1.5-0.1-2.4-0.3l-0.4,2h0.2l0.5,0.1c0.2,0,0.4,0.1,0.7,0.1
		c0.6,0.1,1.1,0.1,1.4,0.1c2.8,0,4.1-0.9,4.1-2.9c0-1.2-0.6-1.9-1.9-2.4c-1.1-0.4-1.2-0.6-1.2-1c0-0.5,0.4-0.7,1.3-0.7
		c0.6,0,1.2,0.1,1.9,0.2l0.4-2c-0.7-0.1-1.8-0.2-2.3-0.2C330.5,24.6,329.4,25.9,329.4,27.4L329.4,27.4z M343.3,33.4
		c1-5.3,1.4-6.2,2.6-6.2h0.3l0.3,0.1l1-2.5c-0.2-0.1-0.2-0.1-0.3-0.1c-0.2,0-0.2-0.1-0.2-0.1h-0.3c-0.9,0-1.4,0.4-2.3,1.4l0.2-1.3
		h-2.4l-1.6,8.7L343.3,33.4L343.3,33.4z M338,33.6c0.6,0,1.1-0.1,1.9-0.3l0.3-1.9c-0.2,0.1-0.4,0.1-0.7,0.1c-0.6,0-0.9-0.2-0.9-0.6
		v-0.3l0.7-3.6h1.4l0.4-2.1h-1.4l0.4-2h-2.6l-1.2,6.6l-0.2,0.7L336,31c0,0.2-0.1,0.6-0.1,0.8C335.9,32.9,336.6,33.6,338,33.6
		L338,33.6z M355.2,32.7c0,0.4,0.3,0.7,0.7,0.7c0.4,0,0.7-0.3,0.7-0.7s-0.3-0.6-0.7-0.6C355.5,32.1,355.2,32.4,355.2,32.7z
		 M355.9,32.2c0.3,0,0.5,0.2,0.5,0.5c0,0.3-0.2,0.5-0.5,0.5c-0.3,0-0.6-0.2-0.6-0.5C355.3,32.5,355.6,32.2,355.9,32.2z M350.5,33.7
		c2.7,0,4.7-1.3,5.1-4.1c0.1-0.5,0.1-0.6,0.1-1c0-2.2-1.4-3.9-4.1-3.9c-3.1,0-5.2,2.1-5.2,5.2C346.3,31.8,347.5,33.7,350.5,33.7z
		 M351.4,26.6c1,0,1.4,0.9,1.4,1.8c0,0.4,0,0.7-0.1,1c-0.2,1.4-1.4,2.2-2,2.2c-1,0-1.5-0.8-1.5-1.9
		C349.3,28.2,350.1,26.6,351.4,26.6z M325.1,33.6c0.9,0,1.8-0.1,2.6-0.3l0.4-2.2c-1,0.4-1.8,0.6-2.7,0.6c-1.5,0-2.3-0.5-2.3-1.5
		v-0.2h5.2c0.2-0.9,0.3-1.5,0.3-2.2c0-1.9-1.4-3.1-3.5-3.1c-2.6,0-4.5,2.2-4.5,5.2C320.6,32.2,322.1,33.6,325.1,33.6z M325.1,26.5
		c0.8,0,1.2,0.4,1.2,1.1v0.5h-2.9C323.6,27,324.3,26.5,325.1,26.5z M322.7,39.8h7.8c0.5-0.8,0.9-1.5,1.3-2.4h-10.4
		C321.8,38.3,322.3,39,322.7,39.8z M326.6,44.5C326.6,44.5,326.6,44.4,326.6,44.5c0.9-0.8,1.6-1.6,2.3-2.4h-4.5
		C325.1,42.9,325.9,43.8,326.6,44.5L326.6,44.5z M261.6,95h-1.5c-1.7,0.2-2,0.8-2,2.2c0,0.8,0.4,1.3,1,1.4c0.9,0.2,1.8-0.1,2.6-0.4
		c0.2-0.1,0.3-0.2,0.3-0.5v-2.3C262,95.1,261.9,95,261.6,95z M226,96.5v-1.3c0-0.1-0.2-0.3-0.2-0.3c-0.9,0-1.7,0.1-2.6,0.2
		c-0.5,0.1-0.9,0.4-1,1c-0.1,0.5-0.2,1-0.1,1.5c0.1,0.6,0.4,0.9,1,1c0.9,0.2,1.7,0,2.5-0.3c0.3-0.2,0.5-0.3,0.5-0.7
		C226,97.2,226,96.9,226,96.5z"/>
	<path class="st0" d="M273.5,64h-81.7c-1.2,0-2.2,1-2.2,2.2v51.3c0,1.2,1,2.2,2.2,2.2h81.7c1.2,0,2.2-1,2.2-2.2V66.2
		C275.7,65,274.7,64,273.5,64z M201.3,99.8c0,0.7-0.4,1.1-1.1,1.1H198c-0.5,0-0.6-0.1-0.6-0.6V83.6c0-0.7,0.4-1.2,1.2-1.2h2.2
		c0.5,0,0.6,0.1,0.6,0.6C201.3,88.6,201.3,94.2,201.3,99.8z M210.6,101c-1.6-0.2-3.1-0.6-4.5-1.6c-2-1.5-3.3-3.4-3.6-5.9
		c0-0.2-0.1-0.4-0.1-0.6c0-0.5,0-0.5,0.6-0.5c2.1,0.2,4,1.1,5.6,2.7c1.4,1.5,2.2,3.3,2.4,5.4C211.2,101,211.1,101.1,210.6,101z
		 M211.2,83c-0.5,3.7-2.4,6.3-5.9,7.7c-0.7,0.2-1.5,0.4-2.2,0.6c-0.6-0.1-0.6-0.1-0.6-0.6c0.2-2,0.9-3.7,2.2-5.2
		c1.4-1.6,3.3-2.6,5.3-2.9c0.2,0,0.4,0,0.6-0.1C211.2,82.4,211.3,82.5,211.2,83L211.2,83z M216.8,85.5v14.7c0,0.7-0.1,0.8-0.8,0.8
		h-2.3c-0.5,0-0.6-0.1-0.6-0.6V83.1c0-0.6,0.1-0.6,0.6-0.6h2.3c0.6,0,0.6,0.1,0.6,0.6C216.8,83.9,216.8,84.7,216.8,85.5L216.8,85.5z
		 M229.1,101.1H227c-0.6,0-0.7-0.1-0.7-0.7v-0.2c-0.4,0.2-0.8,0.5-1.1,0.6c-1.3,0.6-2.6,0.7-4,0.3c-1.2-0.4-2-1.2-2.3-2.5
		c-0.2-0.9-0.2-1.8-0.1-2.7c0.3-1.4,1.2-2.2,2.5-2.6c1.3-0.4,2.6-0.4,3.8-0.4c1,0,1,0,1-1v-0.7c-0.2-0.7-0.6-1.2-1.5-1.2
		c-1.4,0-2.8,0.1-4.2,0.2c-0.7,0.1-0.8,0-0.8-0.7v-1.4c0-0.2,0.1-0.5,0.3-0.5c2.2-0.5,4.4-0.8,6.5-0.2c2,0.5,3.2,1.8,3.2,3.9
		c0.1,3.1,0.1,6.1,0.1,9.2C229.7,100.9,229.5,101.1,229.1,101.1L229.1,101.1z M238.8,90.1c-1-0.1-1.9,0.2-2.9,0.7
		c-0.2,0.2-0.3,0.3-0.3,0.6v9c0,0.6-0.1,0.7-0.7,0.7h-2.3c-0.6,0-0.7-0.2-0.7-0.7V88c0-0.6,0.1-0.8,0.8-0.8h2.2
		c0.6,0,0.6,0.1,0.7,0.7v0.4c0.2-0.2,0.3-0.2,0.4-0.3c0.9-0.6,1.8-1,2.9-1c0.3,0,0.6,0.2,0.5,0.5v2
		C239.4,89.9,239.2,90.1,238.8,90.1L238.8,90.1z M252.7,100.4c0,0.6-0.1,0.7-0.7,0.7h-2.2c-0.6,0-0.6-0.1-0.6-0.6v-7.9
		c0-0.5-0.1-0.9-0.2-1.4c-0.1-0.6-0.6-1-1.1-1.1c-1.1-0.2-2.1,0.2-3,0.7c-0.2,0.1-0.2,0.3-0.2,0.6v9.2c0,0.4-0.2,0.6-0.6,0.6h-2.5
		c-0.5,0-0.6-0.2-0.6-0.6V87.9c0-0.5,0.2-0.6,0.6-0.6h2.2c0.5,0,0.6,0.1,0.6,0.6v0.6c0.2-0.2,0.4-0.2,0.6-0.3c1.4-1,3.1-1.3,4.9-1
		c1.6,0.2,2.4,1.4,2.7,2.8c0.2,0.7,0.2,1.4,0.2,2.2L252.7,100.4L252.7,100.4z M264.9,101.1h-2.1c-0.6,0-0.6,0-0.6-0.6v-0.2
		c0,0,0-0.1-0.1-0.1c-0.1,0.1-0.2,0.1-0.2,0.1c-1,0.7-2,1-3.2,1c-2.2,0.2-4-1.3-4.1-3.6c0-0.6-0.1-1.1,0.1-1.7
		c0.2-1.4,1-2.2,2.3-2.6c1-0.2,1.9-0.4,2.9-0.5c0.6-0.1,1.2,0,1.8,0c0.2,0,0.4-0.1,0.4-0.3c0-0.4,0-0.8-0.1-1.2
		c-0.2-0.9-0.6-1.4-1.5-1.4c-1.4,0-2.8,0.1-4.1,0.2c-0.7,0-0.8,0-0.8-0.7v-1.4c0-0.3,0.2-0.6,0.5-0.6c1.6-0.4,3.3-0.6,4.9-0.5
		c0.7,0.1,1.4,0.2,2.1,0.4c1.6,0.6,2.4,1.7,2.7,3.3c0.1,0.4,0.1,0.8,0.1,1.3v8.4C265.5,101,265.5,101.1,264.9,101.1L264.9,101.1z
		 M266.8,86.4h-0.3v0.9h-0.2v-0.9H266v-0.1L266.8,86.4L266.8,86.4z M267.8,87.3v-0.8c0,0.1-0.1,0.2-0.2,0.4l-0.2,0.5h-0.1l-0.2-0.5
		c-0.1-0.2-0.1-0.2-0.1-0.4v0.8H267l0.1-1h0.2l0.2,0.5c0,0.1,0.1,0.2,0.1,0.3c0-0.1,0.1-0.2,0.1-0.3l0.2-0.5h0.2l0.1,1H267.8z
		 M18.7,86.7c-0.3-0.2-0.9-0.3-1.5-0.3h-0.6c-0.4,0-0.8,0.3-0.9,0.6l-0.6,2.3c-0.1,0.4,0.2,0.7,0.6,0.7h0.4c1,0,1.8-0.2,2.2-0.6
		c0.6-0.4,0.8-1,0.8-1.7C19.2,87.3,19,87,18.7,86.7z M26.9,92.2c-0.5,0.1-0.9,0.2-1.2,0.2L25,93c-0.2,0.2-0.2,0.5-0.2,0.9l0.3,0.6
		c0.2,0.2,0.6,0.2,1,0.2c0.3,0,0.6-0.1,1-0.2l0.7-0.4l0.2-0.4c0.1-0.4,0.3-1.4,0.4-1.5l-0.2-0.2C28.1,92.1,27.3,92.2,26.9,92.2z"/>
	<path class="st0" d="M84.1,64H2.5c-1.2,0-2.2,1-2.2,2.2v51.3c0,1.2,1,2.2,2.2,2.2h81.7c1.2,0,2.2-1,2.2-2.2V66.2
		C86.3,65,85.3,64,84.1,64z M20.8,91c-1.2,0.9-2.9,1.4-5.1,1.4h-0.5c-0.4,0-0.8,0.3-0.9,0.6l-0.6,2.6c-0.1,0.4-0.5,0.7-0.9,0.7h-1.8
		c-0.4,0-0.6-0.3-0.6-0.7L13,84.7c0.1-0.4,0.5-0.6,0.9-0.7h3.7c0.8,0,1.5,0.1,2.1,0.2c0.6,0.1,1.1,0.3,1.5,0.6c0.4,0.2,0.8,0.6,1,1
		c0.2,0.4,0.3,1,0.3,1.6C22.6,89,22,90.2,20.8,91z M31.9,89.7l-0.1,0.5l-1.3,5.7c-0.1,0.3-0.4,0.6-0.8,0.6h-1.6
		c-0.3,0-0.6-0.3-0.5-0.6l0.1-0.3L27.1,96l-0.7,0.4l-0.9,0.3c-0.2,0.1-0.6,0.1-1.1,0.1c-0.8,0-1.4-0.2-1.9-0.6
		c-0.5-0.5-0.7-1-0.7-1.7c0-0.7,0.2-1.4,0.5-1.8c0.3-0.5,0.9-0.9,1.5-1.2c0.6-0.3,1.4-0.5,2.2-0.6c0.9-0.2,1.6-0.2,2.6-0.3l0.2-0.2
		v-0.2c0-0.4-0.2-0.6-0.6-0.8S27.4,89,26.7,89c-0.5,0-1.1,0.1-1.7,0.2c-0.6,0.2-0.8,0.2-1,0.3c-0.2,0.1-0.5,0.1-0.3-0.5l0.2-0.9
		c0,0,0.1-0.7,0.8-0.8c0.3-0.1,0.4-0.1,0.9-0.2c0.7-0.1,1.4-0.2,2.2-0.2c1.4,0,2.6,0.2,3.2,0.6c0.6,0.4,1,1,1,1.8
		C32,89.4,31.9,89.7,31.9,89.7z M34.7,100.8h-1.8c-0.4,0-0.5-0.3-0.2-0.7l1.6-2.8c0,0,0.2-0.2,0-1c-0.2-1.6-1.4-8.5-1.4-8.5
		C32.8,87.3,33,87,33.4,87H35c0.5,0,0.9,0.3,1,0.7l0.8,4.8h0.3c0.2-0.5,2.8-4.9,2.8-4.9c0.2-0.4,0.7-0.7,1.1-0.7h2.2
		c0.6,0-0.1,1-0.1,1L35.9,100C35.6,100.4,35.1,100.8,34.7,100.8z M53.2,91.1c-1.2,0.9-2.9,1.4-5.1,1.4h-0.5c-0.4,0-0.8,0.3-0.9,0.6
		l-0.6,2.6c-0.1,0.4-0.5,0.6-0.9,0.6h-1.8c-0.4,0-0.6-0.3-0.6-0.6l2.5-10.9c0.1-0.4,0.5-0.6,0.9-0.7H50c0.8,0,1.5,0.1,2.1,0.2
		c0.6,0.1,1.1,0.3,1.5,0.6c0.4,0.2,0.8,0.6,1,1c0.2,0.4,0.3,1,0.3,1.6C55,89,54.4,90.2,53.2,91.1z M64.2,89.7l-0.1,0.5l-1.3,5.7
		c-0.1,0.3-0.4,0.6-0.8,0.6h-1.6c-0.3,0-0.6-0.3-0.5-0.6l0.1-0.3L59.4,96l-0.7,0.4l-0.9,0.3c-0.2,0.1-0.6,0.1-1.1,0.1
		c-0.8,0-1.4-0.2-1.9-0.6c-0.5-0.4-0.7-1-0.7-1.7c0-0.7,0.2-1.4,0.5-1.8c0.3-0.5,0.9-0.9,1.5-1.2c0.6-0.3,1.4-0.5,2.2-0.6
		c0.9-0.2,1.6-0.2,2.6-0.3l0.2-0.2v-0.2c0-0.4-0.2-0.6-0.6-0.8S59.8,89,59.1,89c-0.5,0-1.1,0.1-1.7,0.2c-0.6,0.2-0.8,0.2-1,0.3
		c-0.2,0.1-0.5,0.1-0.3-0.5l0.2-0.9c0,0,0.1-0.7,0.8-0.8c0.3-0.1,0.4-0.1,1-0.2c0.7-0.1,1.4-0.2,2.2-0.2c1.4,0,2.5,0.2,3.2,0.6
		c0.7,0.4,1,1,1,1.8C64.4,89.4,64.2,89.7,64.2,89.7z M70,84.9l-2.4,10.8l-0.1,0.2c-0.2,0.3-0.5,0.6-0.8,0.6H65
		c-0.3-0.1-0.6-0.3-0.5-0.6l0.1-0.3l2.2-10.1l0.1-0.3l0.1-0.2c0.2-0.3,0.5-0.6,0.8-0.6h1.6C69.8,84.3,70,84.6,70,84.9z M73.2,83.8
		h-0.6v1l0.1,0.2l0.1,0.1h0.4v0.2h-0.3l-0.4-0.2l-0.2-0.5v-1H72v-0.2h0.2V83h0.3v0.5h0.6L73.2,83.8L73.2,83.8z M76,84.1v1.1h-0.3
		v-1.4l-0.1-0.1h-0.2l-0.2,0.1l-0.3,0.1v1.3h-0.3V84l-0.1-0.2l-0.1-0.1h-0.2L74,83.9L73.8,84v1.3h-0.3v-1.8h0.3v0.2l0.2-0.2l0.3-0.1
		l0.3,0.1l0.2,0.2l0.3-0.2l0.3-0.1l0.4,0.2L76,84.1z"/>
	<path class="st0" d="M59.4,92.2c-0.5,0.1-0.9,0.2-1.2,0.2c-0.3,0.2-0.6,0.3-0.8,0.5c-0.2,0.2-0.2,0.5-0.2,0.9l0.3,0.6
		c0.2,0.2,0.6,0.2,1,0.2c0.3,0,0.6-0.1,1-0.2l0.7-0.4l0.3-0.4c0.1-0.4,0.3-1.4,0.3-1.5l-0.2-0.2C60.6,92.1,59.8,92.2,59.4,92.2z
		 M51.1,86.8c-0.3-0.2-0.9-0.3-1.5-0.3H49c-0.4,0-0.8,0.3-0.9,0.7l-0.6,2.3c-0.1,0.4,0.2,0.7,0.6,0.7h0.5c1,0,1.7-0.2,2.2-0.6
		c0.6-0.4,0.8-1,0.8-1.7C51.6,87.4,51.5,87,51.1,86.8z M118,89.3c-1.3,0-1.9,1-1.9,3c0,2.2,0.6,3,1.9,3c1.3,0,1.9-1,1.9-3
		C119.9,90.2,119.3,89.3,118,89.3z M168.5,89.2c-1,0-1.7,0.6-1.8,2.4h3.5v-0.1C170.3,90.1,169.7,89.2,168.5,89.2z M141.1,94.1
		c0,0.9,0.4,1.4,1.3,1.4c0.7,0,1.3-0.4,1.7-1.1v-1.8h-0.9C141.8,92.6,141.1,93.1,141.1,94.1z"/>
	<path class="st0" d="M179.5,64H97.8c-1.2,0-2.2,1-2.2,2.2v51.3c0,1.2,1,2.2,2.2,2.2h81.7c1.2,0,2.2-1,2.2-2.2V66.2
		C181.6,65,180.7,64,179.5,64z M110.3,96.8h-2.6l-3.5-11.6h2.4l2.5,9.6l2.5-9.6h2.2L110.3,96.8L110.3,96.8z M118,97
		c-2.6,0-4.1-1.8-4.1-4.7c0-2.8,1.6-4.7,4.1-4.7c2.6,0,4.1,1.8,4.1,4.7C122.2,95.2,120.7,97,118,97z M128.9,89.9
		c-0.2-0.1-0.5-0.1-0.8-0.1c-1,0-1.6,0.8-2,2.3v4.7H124v-8.9h1.8l0.2,1.8c0.4-1.3,1.3-2,2.3-2c0.3,0,0.6,0,0.9,0.1L128.9,89.9
		L128.9,89.9z M132.8,96.8h-2.2V84.3l2.2-0.2L132.8,96.8L132.8,96.8z M136,96.8l-3-4.9l2.9-4h2.2l-2.9,3.9l3.3,4.9H136z M146.4,97
		c-1-0.1-1.6-0.4-2-1.3c-0.6,1-1.6,1.4-2.6,1.4c-1.8,0-2.9-1.1-2.9-2.7c0-1.9,1.4-2.9,4.1-2.9h1.1V91c0-1.1-0.6-1.5-1.7-1.5
		c-0.6,0-1.4,0.2-2.3,0.5l-0.5-1.4c1.1-0.4,2.2-0.6,3.2-0.6c2.4,0,3.4,1.1,3.4,3v3.7c0,0.7,0.2,1,0.6,1.1L146.4,97L146.4,97z
		 M151.5,97c-1.5,0-2.7-0.6-3.5-1.3l1-1.2c0.7,0.6,1.5,0.9,2.4,0.9c1,0,1.6-0.4,1.6-1c0-0.7-0.3-1-2-1.4c-1.8-0.5-2.6-1.4-2.6-2.7
		c0-1.4,1.4-2.6,3.4-2.6c1.3,0,2.3,0.4,3.1,1l-0.8,1.3c-0.7-0.5-1.4-0.7-2.2-0.7c-0.9,0-1.4,0.3-1.4,0.9c0,0.6,0.3,0.9,1.8,1.3
		c1.8,0.5,2.8,1.2,2.8,2.8C155.2,96.1,153.5,97,151.5,97z M159.6,97c-1.5,0-2.7-0.6-3.5-1.3l1-1.2c0.7,0.6,1.5,0.9,2.4,0.9
		c1,0,1.6-0.4,1.6-1c0-0.7-0.3-1-2-1.4c-1.8-0.5-2.6-1.4-2.6-2.7c0-1.4,1.4-2.6,3.4-2.6c1.3,0,2.3,0.4,3.1,1l-0.8,1.3
		c-0.7-0.5-1.4-0.7-2.2-0.7c-0.9,0-1.4,0.3-1.4,0.9c0,0.6,0.3,0.9,1.8,1.3c1.8,0.5,2.8,1.2,2.8,2.8C163.4,96.1,161.6,97,159.6,97z
		 M172.4,93h-5.6c0.2,1.8,1,2.4,2.2,2.4c0.8,0,1.4-0.2,2.2-0.8l0.9,1.2c-0.9,0.7-1.9,1.2-3.3,1.2c-2.7,0-4.2-1.8-4.2-4.6
		c0-2.7,1.4-4.7,3.9-4.7s3.9,1.7,3.9,4.5V93L172.4,93z"/>
</g>
</svg>
